<svg xmlns="http://www.w3.org/2000/svg" viewBox="0 0 102 128.11"><defs><style>.cls-1{fill:#ed5824;}.cls-2{fill:#dd441b;}.cls-3{fill:#f9f9f9;}.cls-4{fill:none;}.cls-5{fill:#c92d0e;}.cls-6{fill:#f4d938;}.cls-7{fill:#efefef;}.cls-8{fill:#fff;}.cls-9{fill:#ffd3ca;}.cls-10{fill:#e5491f;}</style></defs><title>Altavoz</title><g id="Capa_2" data-name="Capa 2"><g id="Capa_1-2" data-name="Capa 1"><g id="_Grupo_" data-name="&lt;Grupo&gt;"><g id="_Grupo_2" data-name="&lt;Grupo&gt;"><g id="_Grupo_3" data-name="&lt;Grupo&gt;"><path id="_Trazado_" data-name="&lt;Trazado&gt;" class="cls-1" d="M14.92,100.71A5.17,5.17,0,0,1,11,102l-4.64-.43a5.15,5.15,0,0,1-3.17-1.49l-.65-.64-.64-.65A5.15,5.15,0,0,1,.45,95.6L0,91a5.17,5.17,0,0,1,1.27-3.88,43.56,43.56,0,0,0,6.2,7.43A42.61,42.61,0,0,0,14.92,100.71Z"/><path id="_Trazado_2" data-name="&lt;Trazado&gt;" class="cls-2" d="M4,84.31l6.82,6.83L17.69,98l-2.52,2.52-.25.22a42.61,42.61,0,0,1-7.43-6.2,43.56,43.56,0,0,1-6.2-7.43c.08-.08.15-.17.22-.25Z"/></g><g id="_Grupo_4" data-name="&lt;Grupo&gt;"><path id="_Trazado_3" data-name="&lt;Trazado&gt;" class="cls-2" d="M10.86,91.14,4,84.31,1.51,86.83c-.07.08-.14.17-.22.25a43.56,43.56,0,0,0,6.2,7.43,42.61,42.61,0,0,0,7.43,6.2l.25-.22L17.69,98Z"/><path id="_Trazado_4" data-name="&lt;Trazado&gt;" class="cls-2" d="M3,97,1.61,98.41a3.81,3.81,0,0,0,.33.36l.08.09,1.39-1.39Z"/><path id="_Trazado_5" data-name="&lt;Trazado&gt;" class="cls-2" d="M4.53,98.59,3.14,100l.09.08a3.7,3.7,0,0,0,.36.33L5,99Z"/><polygon id="_Trazado_6" data-name="&lt;Trazado&gt;" class="cls-2" points="3.75 97.82 2.37 99.2 2.58 99.42 2.8 99.63 4.18 98.25 3.75 97.82"/></g></g><ellipse id="_Trazado_7" data-name="&lt;Trazado&gt;" class="cls-2" cx="29.33" cy="72.68" rx="3" ry="14.15" transform="translate(-42.8 42.02) rotate(-45)"/><path id="_Trazado_8" data-name="&lt;Trazado&gt;" class="cls-3" d="M20.71,63l.42-.55c.22-.28.43-.57.64-.87a.86.86,0,0,0,.07-.1q.3-.4.57-.84l.11-.16c.18-.27.36-.55.53-.83l.12-.18.5-.84.11-.2c.17-.29.33-.57.48-.86a1.28,1.28,0,0,0,.11-.2c.16-.29.31-.58.46-.88a1.24,1.24,0,0,0,.1-.2l.45-.9.08-.18c.15-.31.29-.62.44-.94l.06-.15c.15-.33.29-.66.43-1l0-.09A67.31,67.31,0,0,0,30,41.38v0l.24-1.16v-.07c.08-.37.15-.75.22-1.13l0-.09c.07-.37.14-.75.2-1.12l0-.1.18-1.12,0-.1c.06-.37.12-.75.17-1.12v-.07c.06-.38.11-.77.16-1.15v0a120.3,120.3,0,0,0,1-12.53v0l0-1v-.06c0-.32,0-.64,0-.95v-.11c0-.3,0-.6,0-.9v-.11c0-.3,0-.59,0-.88v-.11c0-.29,0-.58,0-.86v-1c0-.29,0-.58,0-.86h0c0-2.34-.14-4.37-.25-6V8.59c0-.17,0-.33,0-.49V8c0-.15,0-.29,0-.44V7.41c0-.13,0-.26,0-.38l0-.15c0-.12,0-.23,0-.33l0-.15a3,3,0,0,0,0-.31V6l0-.28V5.58a1.64,1.64,0,0,0,0-.22V5.24l0-.18V4.55c0-.12,0-.19,0-.19l33,33,33,33-.19,0h-.16l-.1,0h-.25l-.18,0h-.12l-.22,0H96.3l-.27,0H95.9l-.3,0-.15,0-.32,0H95l-.38,0h-.13L94,70H93.9l-.49,0h-.09c-1.63-.1-3.66-.2-6-.25H82.48l-1,0h-.07l-1,0h0a122.84,122.84,0,0,0-12.52,1h0l-1.15.16h-.06l-1.14.17-.09,0-1.11.18-.11,0-1.11.2-.1,0-1.13.22h-.07L60.65,72h0a66.33,66.33,0,0,0-11.7,3.59l-.08,0-1,.43-.15.07-.94.43-.18.09-.9.44-.2.1c-.3.15-.59.3-.87.46l-.21.11-.85.48-.21.11-.83.51a1.18,1.18,0,0,0-.19.11l-.83.53-.16.11-.84.57-.1.07c-.29.21-.59.42-.87.64l-.55.42c-.41.32-.8.65-1.19,1-.64.55-1.25,1.12-1.85,1.72l-9-9-9-9c.6-.59,1.17-1.21,1.72-1.85C20.07,63.84,20.39,63.44,20.71,63Z"/><g id="_Grupo_5" data-name="&lt;Grupo&gt;"><g id="_Grupo_6" data-name="&lt;Grupo&gt;"><rect id="_Trazado_9" data-name="&lt;Trazado&gt;" class="cls-2" x="45.75" y="113.78" width="15.48" height="10.38" transform="translate(-68.46 72.67) rotate(-45)"/><rect id="_Trazado_10" data-name="&lt;Trazado&gt;" class="cls-1" x="31.86" y="90.62" width="15.48" height="28.91" transform="translate(-62.7 58.78) rotate(-45)"/></g><rect id="_Trazado_11" data-name="&lt;Trazado&gt;" class="cls-2" x="20.3" y="91.62" width="15.48" height="3.79" transform="translate(-57.92 47.22) rotate(-45)"/></g><g id="_Grupo_7" data-name="&lt;Grupo&gt;"><path id="_Trazado_12" data-name="&lt;Trazado&gt;" class="cls-1" d="M27.21,74.79c5.52,5.53,10.95,9.06,12.12,7.89l-19,19s-3.2,1.2-12.2-7.81S.27,81.72.27,81.72l19.05-19C18.15,63.84,21.68,69.27,27.21,74.79Z"/></g><rect id="_Rectángulo_" data-name="&lt;Rectángulo&gt;" class="cls-1" x="51.27" y="106.86" width="10.82" height="22.39" rx="4.35" ry="4.35" transform="translate(13.28 241.62) rotate(-135)"/><path id="_Trazado_13" data-name="&lt;Trazado&gt;" class="cls-4" d="M38.92,82.26c-.19.19-.58.18-1.14,0,.39-.33.78-.66,1.19-1C39.09,81.77,39.08,82.1,38.92,82.26Z"/><path id="_Trazado_14" data-name="&lt;Trazado&gt;" class="cls-4" d="M19.74,63.09c.16-.16.5-.18,1-.06-.32.41-.64.81-1,1.2C19.56,63.66,19.56,63.27,19.74,63.09Z"/><g id="_Grupo_8" data-name="&lt;Grupo&gt;"><path id="_Trazado_15" data-name="&lt;Trazado&gt;" class="cls-2" d="M95.61,70.39a4.67,4.67,0,0,0,3.88-1c4.64-4.65-6.56-23.38-25-41.85s-37.2-29.66-41.85-25a4.65,4.65,0,0,0-1,3.87c7.62.7,22.89,10.94,38,26S94.91,62.78,95.61,70.39Z"/><ellipse id="_Trazado_16" data-name="&lt;Trazado&gt;" class="cls-5" cx="63.61" cy="38.39" rx="8.45" ry="45.26" transform="translate(-8.51 56.22) rotate(-45)"/></g><g id="_Grupo_9" data-name="&lt;Grupo&gt;"><g id="_Grupo_10" data-name="&lt;Grupo&gt;"><path id="_Trazado_17" data-name="&lt;Trazado&gt;" class="cls-6" d="M64.16,50.29l-1,1.38q-3.29-3-6.59-6.28t-6.28-6.58l1.38-1c1.92,2.11,3.95,4.25,6.08,6.37S62.05,48.37,64.16,50.29Z"/><path id="_Trazado_18" data-name="&lt;Trazado&gt;" class="cls-3" d="M64.41,37.54l4.6,4.6-7.7,11c-2.11-1.92-4.25-4-6.37-6.08s-4.16-4.26-6.08-6.37l11-7.7Z"/></g><path id="_Trazado_19" data-name="&lt;Trazado&gt;" class="cls-1" d="M59.87,32.94c-.72.71.76,3.35,3.3,5.89,3.16,3.16,5.8,3.4,5.89,3.31.72-.72-.76-3.36-3.3-5.9S60.58,32.22,59.87,32.94Z"/></g><g id="_Grupo_11" data-name="&lt;Grupo&gt;"><path id="_Trazado_20" data-name="&lt;Trazado&gt;" class="cls-7" d="M37.52,77.49a43.63,43.63,0,0,1-3.91-3.08C37.67,72,53.74,62.57,64.73,56.72c2.7,2.32,5.34,4.43,7.89,6.33C63.66,65.85,45.13,72,37.52,77.49Z"/></g><path id="_Trazado_compuesto_" data-name="&lt;Trazado compuesto&gt;" class="cls-1" d="M33.79,3.47l-.36.46a1.63,1.63,0,0,1-.1.25,3.13,3.13,0,0,0-.15.62A6.67,6.67,0,0,0,33.29,7a18,18,0,0,0,1,3.25,49.53,49.53,0,0,0,4.57,8.5c1,1.59,2.19,3.24,3.46,5s2.64,3.49,4.13,5.3c3,3.63,6.37,7.44,10.1,11.33.93,1,1.9,1.95,2.87,2.92l1.49,1.49,1.5,1.46c2,2,4.18,3.92,6.39,5.85a131.66,131.66,0,0,0,14.3,11,53.68,53.68,0,0,0,8,4.39,18.65,18.65,0,0,0,4.16,1.3,6.2,6.2,0,0,0,1.9.08,3,3,0,0,0,.75-.19l.3-.14a.52.52,0,0,1,.11-.1l.06-.05,0,0s.13-.12-.06.09L98.7,68a.42.42,0,0,1,.09-.19A3.79,3.79,0,0,0,99,67a6.27,6.27,0,0,0,0-1.93,18.89,18.89,0,0,0-1.18-4.23,54.32,54.32,0,0,0-4.21-8.16A119.2,119.2,0,0,0,82.83,38.1C79,33.61,75.07,29.44,71.16,25.68a142.42,142.42,0,0,0-11.5-10A105.43,105.43,0,0,0,49.13,8.3,51.17,51.17,0,0,0,40.43,4a18.45,18.45,0,0,0-3.3-.9A6.43,6.43,0,0,0,34.9,3a1.9,1.9,0,0,0-1.21.57Zm-2.24-2s.22-.2.68-.55a8,8,0,0,1,.9-.47A6.18,6.18,0,0,1,34.4.1c1.91-.33,4.32.18,7,1.23a52.24,52.24,0,0,1,9,4.84c1.64,1.07,3.35,2.26,5.11,3.57S59.16,12.44,61,14c3.7,3,7.58,6.48,11.53,10.28s8,7.93,11.92,12.45A132.57,132.57,0,0,1,95.72,51.36a56.62,56.62,0,0,1,4.64,8.47,21.25,21.25,0,0,1,1.49,4.85,9.28,9.28,0,0,1,.07,2.8,6.3,6.3,0,0,1-.41,1.54c-.15.29-.32.6-.48.85l-.37.47c-.23.24-.11.11-.19.18l-.08.07-.17.15-.34.28c-.25.15-.5.28-.75.42a6.51,6.51,0,0,1-1.54.44,9.5,9.5,0,0,1-2.82,0,21.81,21.81,0,0,1-4.93-1.38,58.55,58.55,0,0,1-8.64-4.44,125.56,125.56,0,0,1-15-11c-2.29-2-4.48-3.93-6.59-5.91l-1.57-1.5-1.52-1.47c-1-1-2-2-2.94-3A148.09,148.09,0,0,1,43.4,31.44a111.6,111.6,0,0,1-7.56-10.81,54.94,54.94,0,0,1-4.61-9.24c-1-2.75-1.45-5.19-1.08-7.11A6.85,6.85,0,0,1,30.5,3a7.64,7.64,0,0,1,.58-1l.37-.44Z"/><g id="_Grupo_12" data-name="&lt;Grupo&gt;"><path id="_Trazado_21" data-name="&lt;Trazado&gt;" class="cls-2" d="M32.62,81.77,16.74,97.64a23.41,23.41,0,0,1-3.32-2.41L29.34,79.32A29.89,29.89,0,0,0,32.62,81.77Z"/></g><g id="_Grupo_13" data-name="&lt;Grupo&gt;"><path id="_Trazado_22" data-name="&lt;Trazado&gt;" class="cls-8" d="M23.53,63.5a31.77,31.77,0,0,0,2.56,3.39C28.61,63,38.55,47.37,44.77,36.77c-1.94-2.33-3.7-4.62-5.27-6.84C36.25,38.43,29.15,56.05,23.53,63.5Z"/></g><g id="_Grupo_14" data-name="&lt;Grupo&gt;"><path id="_Trazado_23" data-name="&lt;Trazado&gt;" class="cls-9" d="M19.41,68.56,3.53,84.43a18.43,18.43,0,0,0,2.05,3L21.5,71.48A22.82,22.82,0,0,1,19.41,68.56Z"/></g><path id="_Trazado_24" data-name="&lt;Trazado&gt;" class="cls-10" d="M21.13,62.48l-.42.55c-.47-.12-.81-.1-1,.06s-.18.57,0,1.14c.57,1.89,3.13,5.75,7.71,10.33s8.44,7.14,10.34,7.71c.56.17.95.18,1.14,0s.17-.49,0-1l.55-.42c.26.84.24,1.48-.14,1.86s-1.18.39-2.16,0c-2.58-1-6.71-4.21-10.25-7.74s-6.79-7.67-7.74-10.25c-.35-1-.38-1.74,0-2.16S20.3,62.23,21.13,62.48Z"/></g></g></g></svg>