<svg xmlns="http://www.w3.org/2000/svg" viewBox="0 0 98.73 130.77"><defs><style>.cls-1{fill:#747474;}.cls-2{fill:#9b672b;}.cls-3{fill:#5f4a2f;}.cls-4{fill:#4b3b27;}.cls-5{fill:#f9f8fb;}.cls-6{fill:#ccc;}.cls-7{fill:#cd8120;}.cls-8{fill:#ac9bc7;}.cls-9{fill:#553b90;}.cls-10{fill:#7e68bc;}.cls-11{fill:#a7a7a7;}.cls-12{fill:#bbb9ef;}</style></defs><title>Listado</title><g id="Capa_2" data-name="Capa 2"><g id="Capa_1-2" data-name="Capa 1"><polygon id="_Trazado_" data-name="&lt;Trazado&gt;" class="cls-1" points="26.17 9.6 29.13 19.34 68.92 19.34 73.08 9.4 63.78 9.44 68.27 1.05 30.74 1.32 34.77 9.6 26.17 9.6"/><polygon id="_Trazado_2" data-name="&lt;Trazado&gt;" class="cls-2" points="96.23 130.77 4.34 130.77 2.29 10.73 98.73 10.73 96.23 130.77"/><polygon id="_Trazado_3" data-name="&lt;Trazado&gt;" class="cls-3" points="94.32 130.77 1.89 130.77 0 10.73 96.44 10.73 94.32 130.77"/><polygon id="_Trazado_4" data-name="&lt;Trazado&gt;" class="cls-4" points="72.9 10.73 27.98 10.73 31.75 19.98 68.74 19.9 72.9 10.73"/><polygon id="_Trazado_5" data-name="&lt;Trazado&gt;" class="cls-4" points="91.32 126.8 9.52 126.8 7.11 17.46 92.69 17.46 91.32 126.8"/><polygon id="_Trazado_6" data-name="&lt;Trazado&gt;" class="cls-5" points="89.42 124.98 7.07 124.98 5.39 15.65 90.97 15.65 89.42 124.98"/><g id="_Grupo_" data-name="&lt;Grupo&gt;"><g id="_Grupo_2" data-name="&lt;Grupo&gt;"><path id="_Trazado_7" data-name="&lt;Trazado&gt;" class="cls-6" d="M26.47,38.27c0,3.42-3.06,6.2-6.84,6.2s-6.85-2.78-6.85-6.2,3.07-6.2,6.85-6.2S26.47,34.85,26.47,38.27Z"/><g id="_Grupo_3" data-name="&lt;Grupo&gt;"><path id="_Trazado_8" data-name="&lt;Trazado&gt;" class="cls-7" d="M19.2,41.19a1.11,1.11,0,0,1-.72-.25l-7.14-6a1.11,1.11,0,0,1,1.8-1.08l6,5.06L29.68,28.72c1.4-.13,1.81,1,1.19,1.64L20,40.89A1.07,1.07,0,0,1,19.2,41.19Z"/></g></g><g id="_Grupo_4" data-name="&lt;Grupo&gt;"><path id="_Trazado_9" data-name="&lt;Trazado&gt;" class="cls-8" d="M83.93,34.64h-47a1,1,0,0,1-1.05-1h0a1,1,0,0,1,1.05-1h47a1,1,0,0,1,1.06,1h0A1,1,0,0,1,83.93,34.64Z"/><path id="_Trazado_10" data-name="&lt;Trazado&gt;" class="cls-8" d="M83.93,39.5h-47a1,1,0,0,1-1.05-1h0a1,1,0,0,1,1.05-1h47a1,1,0,0,1,1.06,1h0A1,1,0,0,1,83.93,39.5Z"/><path id="_Trazado_11" data-name="&lt;Trazado&gt;" class="cls-8" d="M62.25,43.85H36.92a1,1,0,0,1-1.05-1h0a1,1,0,0,1,1.05-1H62.25a1,1,0,0,1,1.06,1h0A1,1,0,0,1,62.25,43.85Z"/></g></g><g id="_Grupo_5" data-name="&lt;Grupo&gt;"><g id="_Grupo_6" data-name="&lt;Grupo&gt;"><path id="_Trazado_12" data-name="&lt;Trazado&gt;" class="cls-6" d="M26.47,58.82c0,3.43-3.06,6.2-6.84,6.2s-6.85-2.77-6.85-6.2,3.07-6.2,6.85-6.2S26.47,55.4,26.47,58.82Z"/><g id="_Grupo_7" data-name="&lt;Grupo&gt;"><path id="_Trazado_13" data-name="&lt;Trazado&gt;" class="cls-7" d="M19.2,61.75a1.12,1.12,0,0,1-.72-.26l-7.14-6a1.11,1.11,0,0,1,1.8-1.08l6,5.06L29.68,49.27c1.4-.12,1.81,1,1.19,1.64L20,61.44A1.08,1.08,0,0,1,19.2,61.75Z"/></g></g><g id="_Grupo_8" data-name="&lt;Grupo&gt;"><path id="_Trazado_14" data-name="&lt;Trazado&gt;" class="cls-8" d="M83.93,55.19h-47a1,1,0,0,1-1.05-1h0a1,1,0,0,1,1.05-.95h47a1,1,0,0,1,1.06.95h0A1,1,0,0,1,83.93,55.19Z"/><path id="_Trazado_15" data-name="&lt;Trazado&gt;" class="cls-8" d="M83.93,60.06h-47a1,1,0,0,1-1.05-1h0a1,1,0,0,1,1.05-1h47a1,1,0,0,1,1.06,1h0A1,1,0,0,1,83.93,60.06Z"/><path id="_Trazado_16" data-name="&lt;Trazado&gt;" class="cls-8" d="M62.25,64.4H36.92a1,1,0,0,1-1.05-1h0a1,1,0,0,1,1.05-.95H62.25a1,1,0,0,1,1.06.95h0A1,1,0,0,1,62.25,64.4Z"/></g></g><g id="_Grupo_9" data-name="&lt;Grupo&gt;"><g id="_Grupo_10" data-name="&lt;Grupo&gt;"><path id="_Trazado_17" data-name="&lt;Trazado&gt;" class="cls-6" d="M26.47,80.64c0,3.43-3.06,6.2-6.84,6.2s-6.85-2.77-6.85-6.2,3.07-6.2,6.85-6.2S26.47,77.22,26.47,80.64Z"/><g id="_Grupo_11" data-name="&lt;Grupo&gt;"><path id="_Trazado_18" data-name="&lt;Trazado&gt;" class="cls-7" d="M19.2,83.57a1.12,1.12,0,0,1-.72-.26l-7.14-6a1.11,1.11,0,0,1,1.8-1.08l6,5.06L29.68,71.09c1.4-.12,1.81,1,1.19,1.64L20,83.27A1.07,1.07,0,0,1,19.2,83.57Z"/></g></g><g id="_Grupo_12" data-name="&lt;Grupo&gt;"><path id="_Trazado_19" data-name="&lt;Trazado&gt;" class="cls-8" d="M83.93,77h-47a1,1,0,0,1-1.05-1h0a1,1,0,0,1,1.05-1h47a1,1,0,0,1,1.06,1h0A1,1,0,0,1,83.93,77Z"/><path id="_Trazado_20" data-name="&lt;Trazado&gt;" class="cls-8" d="M83.93,81.88h-47a1,1,0,0,1-1.05-1h0a1,1,0,0,1,1.05-1h47a1,1,0,0,1,1.06,1h0A1,1,0,0,1,83.93,81.88Z"/><path id="_Trazado_21" data-name="&lt;Trazado&gt;" class="cls-8" d="M62.25,86.22H36.92a1,1,0,0,1-1.05-1h0a1,1,0,0,1,1.05-1H62.25a1,1,0,0,1,1.06,1h0A1,1,0,0,1,62.25,86.22Z"/></g></g><g id="_Grupo_13" data-name="&lt;Grupo&gt;"><g id="_Grupo_14" data-name="&lt;Grupo&gt;"><path id="_Trazado_22" data-name="&lt;Trazado&gt;" class="cls-6" d="M26.47,101.19c0,3.43-3.06,6.2-6.84,6.2s-6.85-2.77-6.85-6.2S15.85,95,19.63,95,26.47,97.77,26.47,101.19Z"/><g id="_Grupo_15" data-name="&lt;Grupo&gt;"><path id="_Trazado_23" data-name="&lt;Trazado&gt;" class="cls-7" d="M19.2,104.12a1.12,1.12,0,0,1-.72-.26l-7.14-6a1.11,1.11,0,0,1,1.8-1.09l6,5.06L29.68,91.64c1.4-.12,1.81,1,1.19,1.64L20,103.82A1.07,1.07,0,0,1,19.2,104.12Z"/></g></g><g id="_Grupo_16" data-name="&lt;Grupo&gt;"><path id="_Trazado_24" data-name="&lt;Trazado&gt;" class="cls-8" d="M83.93,97.56h-47a1,1,0,0,1-1.05-1h0a1,1,0,0,1,1.05-1h47a1,1,0,0,1,1.06,1h0A1,1,0,0,1,83.93,97.56Z"/><path id="_Trazado_25" data-name="&lt;Trazado&gt;" class="cls-8" d="M83.93,102.43h-47a1,1,0,0,1-1.05-1h0a1,1,0,0,1,1.05-1h47a1,1,0,0,1,1.06,1h0A1,1,0,0,1,83.93,102.43Z"/><path id="_Trazado_26" data-name="&lt;Trazado&gt;" class="cls-8" d="M62.25,106.77H36.92a1,1,0,0,1-1.05-1h0a1,1,0,0,1,1.05-1H62.25a1,1,0,0,1,1.06,1h0A1,1,0,0,1,62.25,106.77Z"/></g></g><path id="_Trazado_27" data-name="&lt;Trazado&gt;" class="cls-9" d="M33.92,115.62H19.21a1,1,0,0,1-1-.93h0a1,1,0,0,1,1-.94H33.92a1,1,0,0,1,1,.94h0A1,1,0,0,1,33.92,115.62Z"/><path id="_Trazado_28" data-name="&lt;Trazado&gt;" class="cls-10" d="M43.26,115.62h-4.9a1,1,0,0,1-1-.93h0a1,1,0,0,1,1-.94h4.9a1,1,0,0,1,1,.94h0A1,1,0,0,1,43.26,115.62Z"/><path id="_Trazado_29" data-name="&lt;Trazado&gt;" class="cls-8" d="M52.29,115.62h-4.9a1,1,0,0,1-1-.93h0a1,1,0,0,1,1-.94h4.9a1,1,0,0,1,1,.94h0A1,1,0,0,1,52.29,115.62Z"/><g id="_Grupo_17" data-name="&lt;Grupo&gt;"><polygon id="_Trazado_30" data-name="&lt;Trazado&gt;" class="cls-11" points="24.61 8.54 27.57 18.29 67.37 18.29 71.53 8.35 62.23 8.38 66.71 0 29.19 0.26 33.22 8.54 24.61 8.54"/><polygon id="_Trazado_31" data-name="&lt;Trazado&gt;" class="cls-12" points="38.8 4.4 56.65 4.32 54.09 8.23 40.88 8.33 38.8 4.4"/></g></g></g></svg>