<svg xmlns="http://www.w3.org/2000/svg" viewBox="0 0 149.98 115.9"><defs><style>.cls-1{fill:#909ba0;}.cls-2{fill:#2e4661;}.cls-3{fill:#272525;opacity:0.12;}.cls-4{fill:#59595b;}.cls-5{fill:#b3d1e2;}.cls-6{opacity:0.22;}.cls-7,.cls-8{fill:#fff;}.cls-8{opacity:0.31;}.cls-9{fill:#a36652;}.cls-10{fill:#6a8678;}</style></defs><title>Lupa</title><g id="Capa_2" data-name="Capa 2"><g id="Capa_1-2" data-name="Capa 1"><rect class="cls-1" x="89.53" y="42.83" width="15.49" height="72.81" transform="translate(-21.46 119.79) rotate(-58.02)"/><path class="cls-2" d="M148.28,111l-.09.15c-2.59,4.14-7.2,5.93-10.31,4L102.16,93.2l9.39-15.79L147.34,100C150.45,101.9,150.87,106.84,148.28,111Z"/><polygon class="cls-3" points="80.78 77.73 83.03 79.37 103.42 74.08 86.43 63.24 80.78 77.73"/><circle class="cls-4" cx="46.62" cy="46.62" r="46.61" transform="translate(-19.31 46.62) rotate(-45)"/><circle class="cls-5" cx="46.62" cy="46.62" r="40.1"/><g class="cls-6"><path class="cls-7" d="M17.72,45A28.24,28.24,0,0,1,70.35,30c1.83,3.11,6.79.51,5-2.6A34.24,34.24,0,0,0,38.68,11.2C24.49,14.22,14,26.42,12.31,40.68a30.42,30.42,0,0,0-.19,4.16c.06,3.6,5.66,3.79,5.6.16Z"/></g><circle class="cls-8" cx="76.77" cy="38.64" r="3.69" transform="translate(-0.63 1.28) rotate(-0.95)"/><path class="cls-9" d="M102.63,92.67l8.93-15a1.15,1.15,0,0,0-.31-1.53L111.1,76a1.18,1.18,0,0,0-1.71.35L100.6,91.48a1.17,1.17,0,0,0,.44,1.61h0A1.16,1.16,0,0,0,102.63,92.67Z"/><path class="cls-10" d="M85.73,46.9A39.68,39.68,0,1,1,10.62,29,39.68,39.68,0,0,1,85.73,46.9a1.07,1.07,0,0,0,2.14,0,42.33,42.33,0,0,0-9.44-26.45A41.8,41.8,0,1,0,87.87,46.9,1.07,1.07,0,0,0,85.73,46.9Z"/></g></g></svg>